<?xml version="1.0" standalone="no"?><!DOCTYPE svg PUBLIC "-//W3C//DTD SVG 1.1//EN" "http://www.w3.org/Graphics/SVG/1.1/DTD/svg11.dtd"><svg t="1750845689115" class="icon" viewBox="0 0 1024 1024" version="1.1" xmlns="http://www.w3.org/2000/svg" p-id="1538" xmlns:xlink="http://www.w3.org/1999/xlink" width="200" height="200"><path d="M821.589333 810.666667a32 32 0 1 1 0 64H204.373333a32 32 0 1 1 0-64h617.216z" fill="#1296db" p-id="1539"></path><path d="M392.192 222.890667l253.397333 146.261333a32 32 0 0 1 15.914667 29.866667l-16.981333 248.874666a32 32 0 0 1-18.176 26.709334l-409.216 194.816a32 32 0 0 1-45.653334-26.453334L137.216 392.149333a32 32 0 0 1 14.08-29.013333l207.018667-139.093333a32 32 0 0 1 33.834666-1.152z m-14.762667 65.365333l-174.933333 117.546667 25.045333 330.709333 119.637334-207.061333a32 32 0 0 1 55.424 32l-118.485334 205.098666 297.813334-141.738666 14.378666-210.218667-218.88-126.336z m77.738667-189.141333l256.853333 148.309333a32 32 0 1 1-32 55.424l-256.853333-148.309333a32 32 0 1 1 32-55.424z" fill="#1296db" p-id="1540"></path></svg>